Coordinates
version=1
nRows=9
nColumns=24
inDegrees=yes

Units are S.I. units (second, meters, Newtons, ...)
Angles are in degrees.

endheader
time	pelvis_tilt	pelvis_list	pelvis_rotation	pelvis_tx	pelvis_ty	pelvis_tz	hip_flexion_r	hip_adduction_r	hip_rotation_r	knee_angle_r	ankle_angle_r	subtalar_angle_r	mtp_angle_r	hip_flexion_l	hip_adduction_l	hip_rotation_l	knee_angle_l	ankle_angle_l	subtalar_angle_l	mtp_angle_l	lumbar_extension	lumbar_bending	lumbar_rotation
      0.69500000	      5.03370560	     -7.53915680	     -3.18768482	     -0.73162252	      0.89909835	      0.02146813	    -26.53653325	      8.21020883	     -2.70898327	     -9.41824604	     13.93626545	     -0.14186811	     45.62630724	     17.37060349	     -7.33428301	     -4.53093737	     -6.69230075	     11.42881487	      0.17337196	     29.30855295	    -17.89456167	      4.07920439	      1.77461781
      0.70000000	      4.94814597	     -7.41377837	     -3.24649709	     -0.72268152	      0.89804063	      0.02100295	    -26.30419364	      7.90073050	     -2.59097707	    -10.71462959	     13.66461014	     -0.00551297	     46.22421008	     17.53619131	     -7.15476939	     -4.28991211	     -7.36280100	     10.97458979	     -0.60321163	     31.58157207	    -17.74024363	      3.94019560	      1.66629693
      0.70500000	      4.78708510	     -7.29070267	     -3.22844758	     -0.71380845	      0.89688239	      0.02042873	    -25.91275622	      7.64340916	     -2.48955243	    -12.12950458	     13.34033510	     -0.01125832	     47.11321030	     17.87106107	     -6.95287807	     -3.95204781	     -8.29041254	     10.78848413	     -1.14599123	     31.72275733	    -17.50309022	      3.82844079	      1.47015838
      0.71000000	      4.60624232	     -7.14420880	     -3.20393608	     -0.70498268	      0.89577238	      0.01981065	    -25.40894876	      7.37302231	     -2.38510576	    -13.68197600	     12.82556904	     -0.23174944	     48.83860260	     18.23644958	     -6.71677785	     -3.61933645	     -9.31733266	     10.54886956	     -1.65960258	     32.04847223	    -17.24811543	      3.69763780	      1.26144457
      0.71500000	      4.40623895	     -6.97146055	     -3.15518606	     -0.69618970	      0.89468874	      0.01915984	    -24.81129240	      7.09759595	     -2.27347856	    -15.34299072	     12.26621919	     -0.46650266	     50.32203917	     18.66740915	     -6.44001997	     -3.30018054	    -10.50689022	     10.35130024	     -2.17922130	     32.32082712	    -16.97081961	      3.54127989	      1.01670373
      0.72000000	      4.25084421	     -6.75927408	     -3.13599455	     -0.68744092	      0.89374982	      0.01853174	    -24.17734118	      6.77506013	     -2.11140527	    -17.12307905	     11.56759271	     -0.82776728	     52.53855846	     19.04302713	     -6.12561908	     -3.07835970	    -11.76288251	     10.15866303	     -2.68994605	     32.69329349	    -16.74818702	      3.32852006	      0.80258910
      0.72500000	      3.97255378	     -6.55015812	     -2.99932454	     -0.67876522	      0.89264690	      0.01774138	    -23.32763994	      6.52918049	     -2.03336764	    -19.03884650	     10.84141623	     -1.18638300	     53.31936959	     19.62645690	     -5.77252225	     -2.69064369	    -13.16805960	      9.98387436	     -3.16820603	     32.77095476	    -16.38993686	      3.15754752	      0.43240643
      0.73000000	      3.69984495	     -6.30285600	     -2.90093115	     -0.67022495	      0.89161198	      0.01696518	    -22.36077389	      6.23927420	     -1.92141947	    -21.15112800	     10.16384868	     -1.65276266	     54.07830241	     20.19084695	     -5.38285646	     -2.34623265	    -14.59595017	      9.78981190	     -3.66394700	     32.79766777	    -16.05193044	      2.93354768	      0.17325865
      0.73500000	      3.47920432	     -6.01246080	     -2.68463802	     -0.66161305	      0.89068543	      0.01607640	    -21.41044735	      5.94886523	     -1.97755990	    -23.26772345	      9.06464573	     -2.37692631	     56.67663662	     20.69135778	     -4.91464184	     -1.96132473	    -16.02268773	      9.71720446	     -3.90009438	     32.94400302	    -15.75920733	      2.67680489	     -0.28145539
